#N canvas 1448 511 465 208 12;
#X obj 61 117 bng 20 250 50 0 empty empty empty 0 -10 0 12 #fcfcfc #000000 #000000;
#X obj 41 85 udpreceive 9006;
#X obj 41 178 print packet;
#X obj 135 205 print value;
#X obj 40 143 unpackOSC;
#X obj 133 177 routeOSC /test;
#X obj 66 402 dac~ 1 2;
#X msg 192 318 \; pd dsp 1;
#X msg 287 320 \; pd dsp 0;
#X obj 202 265 loadbang;
#X obj 38 320 wdfClip~;
#X msg 42 253 /wdfClip/test \$1;
#X connect 1 0 0 0;
#X connect 1 0 4 0;
#X connect 4 0 2 0;
#X connect 4 0 5 0;
#X connect 5 0 3 0;
#X connect 5 0 11 0;
#X connect 9 0 7 0;
#X connect 10 1 6 0;
#X connect 10 1 6 1;
#X connect 11 0 10 0;
