#N canvas 554 511 259 961 12;
#X obj 83 576 dac~ 1 2;
#X obj 86 119 oscparse;
#X obj 182 134 print udp;
#X obj 130 187 print oscparse2;
#X obj 16 192 print oscparse1;
#X obj 31 498 netsend -u;
#X msg 45 390 send /test 5;
#X obj 71 340 metro 1000;
#X obj 71 284 loadbang;
#X obj 39 324 tgl 20 0 empty empty empty 0 -10 0 12 #fcfcfc #000000 #000000 0 1;
#X obj 92 67 netreceive 9002 1;
#X msg 52 440 connect localhost 9002;
#X obj 148 315 loadbang;
#X connect 1 0 4 0;
#X connect 6 0 5 0;
#X connect 7 0 6 0;
#X connect 8 0 9 0;
#X connect 9 0 7 0;
#X connect 10 0 1 0;
#X connect 10 0 2 0;
#X connect 11 0 5 0;
